<mxfile host="Electron" modified="2023-11-03T00:58:32.907Z" agent="Mozilla/5.0 (X11; Linux x86_64) AppleWebKit/537.36 (KHTML, like Gecko) draw.io/22.0.0 Chrome/114.0.5735.289 Electron/25.8.3 Safari/537.36" etag="rzJxgDxcZo_R2y8QqiKN" version="22.0.0" type="device">
  <diagram name="PÃ¡gina-1" id="e_wMtVwAIhW8qXqnuXuG">
    <mxGraphModel dx="1194" dy="699" grid="1" gridSize="10" guides="1" tooltips="1" connect="1" arrows="1" fold="1" page="1" pageScale="1" pageWidth="827" pageHeight="1169" math="0" shadow="0">
      <root>
        <mxCell id="0" />
        <mxCell id="1" parent="0" />
        <mxCell id="6b8WSHH42Ca9wU3Yd8ZC-3" value="API &lt;br&gt;Park Controller&lt;br&gt;&lt;b&gt;&lt;i&gt;/v1/park&lt;/i&gt;&lt;/b&gt;" style="shape=umlLifeline;perimeter=lifelinePerimeter;whiteSpace=wrap;html=1;container=1;dropTarget=0;collapsible=0;recursiveResize=0;outlineConnect=0;portConstraint=eastwest;newEdgeStyle={&quot;edgeStyle&quot;:&quot;elbowEdgeStyle&quot;,&quot;elbow&quot;:&quot;vertical&quot;,&quot;curved&quot;:0,&quot;rounded&quot;:0};autosize=0;resizeWidth=1;resizeHeight=1;" parent="1" vertex="1">
          <mxGeometry x="160" y="40" width="110" height="360" as="geometry" />
        </mxCell>
        <mxCell id="6b8WSHH42Ca9wU3Yd8ZC-4" value="request - POST METHOD" style="html=1;verticalAlign=bottom;endArrow=block;edgeStyle=elbowEdgeStyle;elbow=vertical;curved=0;rounded=0;" parent="1" target="6b8WSHH42Ca9wU3Yd8ZC-3" edge="1">
          <mxGeometry width="80" relative="1" as="geometry">
            <mxPoint x="40" y="120" as="sourcePoint" />
            <mxPoint x="170" y="120" as="targetPoint" />
          </mxGeometry>
        </mxCell>
        <mxCell id="GeL4i5uMI6zp8jUjZJmH-1" value="User" style="shape=umlActor;verticalLabelPosition=bottom;verticalAlign=top;html=1;outlineConnect=0;" parent="1" vertex="1">
          <mxGeometry width="30" height="60" as="geometry" />
        </mxCell>
        <mxCell id="GeL4i5uMI6zp8jUjZJmH-2" value="" style="html=1;points=[];perimeter=orthogonalPerimeter;outlineConnect=0;targetShapes=umlLifeline;portConstraint=eastwest;newEdgeStyle={&quot;edgeStyle&quot;:&quot;elbowEdgeStyle&quot;,&quot;elbow&quot;:&quot;vertical&quot;,&quot;curved&quot;:0,&quot;rounded&quot;:0};" parent="1" vertex="1">
          <mxGeometry x="10" y="80" width="10" height="320" as="geometry" />
        </mxCell>
        <mxCell id="GeL4i5uMI6zp8jUjZJmH-3" value="ParkRequest" style="html=1;whiteSpace=wrap;" parent="1" vertex="1">
          <mxGeometry x="30" y="120" width="160" height="50" as="geometry" />
        </mxCell>
        <mxCell id="GeL4i5uMI6zp8jUjZJmH-4" value="call method park()" style="html=1;verticalAlign=bottom;endArrow=block;edgeStyle=elbowEdgeStyle;elbow=vertical;curved=0;rounded=0;" parent="1" source="6b8WSHH42Ca9wU3Yd8ZC-3" target="G64DORwCMHBJvfR-JeO5-1" edge="1">
          <mxGeometry width="80" relative="1" as="geometry">
            <mxPoint x="270" y="120" as="sourcePoint" />
            <mxPoint x="445" y="120" as="targetPoint" />
            <Array as="points">
              <mxPoint x="340" y="120" />
              <mxPoint x="310" y="100" />
            </Array>
          </mxGeometry>
        </mxCell>
        <mxCell id="G64DORwCMHBJvfR-JeO5-1" value="Service&lt;br&gt;Class" style="shape=umlLifeline;perimeter=lifelinePerimeter;whiteSpace=wrap;html=1;container=1;dropTarget=0;collapsible=0;recursiveResize=0;outlineConnect=0;portConstraint=eastwest;newEdgeStyle={&quot;edgeStyle&quot;:&quot;elbowEdgeStyle&quot;,&quot;elbow&quot;:&quot;vertical&quot;,&quot;curved&quot;:0,&quot;rounded&quot;:0};" parent="1" vertex="1">
          <mxGeometry x="390" y="40" width="100" height="360" as="geometry" />
        </mxCell>
        <mxCell id="G64DORwCMHBJvfR-JeO5-12" value="if invalid request, throws&amp;nbsp;BadRequestException" style="html=1;verticalAlign=bottom;endArrow=open;dashed=1;endSize=8;edgeStyle=elbowEdgeStyle;elbow=vertical;curved=0;rounded=0;" parent="1" source="G64DORwCMHBJvfR-JeO5-2" target="6b8WSHH42Ca9wU3Yd8ZC-3" edge="1">
          <mxGeometry y="-10" relative="1" as="geometry">
            <mxPoint x="630" y="150" as="sourcePoint" />
            <mxPoint x="480" y="150" as="targetPoint" />
            <mxPoint as="offset" />
          </mxGeometry>
        </mxCell>
        <mxCell id="G64DORwCMHBJvfR-JeO5-14" value="if vehicle not exists, throws&amp;nbsp;DataNullOrEmptyException" style="html=1;verticalAlign=bottom;endArrow=open;dashed=1;endSize=8;edgeStyle=elbowEdgeStyle;elbow=vertical;curved=0;rounded=0;" parent="1" source="G64DORwCMHBJvfR-JeO5-4" target="6b8WSHH42Ca9wU3Yd8ZC-3" edge="1">
          <mxGeometry y="-10" relative="1" as="geometry">
            <mxPoint x="635" y="210" as="sourcePoint" />
            <mxPoint x="270" y="210" as="targetPoint" />
            <mxPoint as="offset" />
          </mxGeometry>
        </mxCell>
        <mxCell id="G64DORwCMHBJvfR-JeO5-15" value="return http status 200 - SUCCESS" style="html=1;verticalAlign=bottom;endArrow=open;dashed=1;endSize=8;edgeStyle=elbowEdgeStyle;elbow=vertical;curved=0;rounded=0;" parent="1" source="G64DORwCMHBJvfR-JeO5-10" target="6b8WSHH42Ca9wU3Yd8ZC-3" edge="1">
          <mxGeometry y="-10" relative="1" as="geometry">
            <mxPoint x="610" y="280" as="sourcePoint" />
            <mxPoint x="260" y="280" as="targetPoint" />
            <mxPoint as="offset" />
            <Array as="points">
              <mxPoint x="460" y="360" />
            </Array>
          </mxGeometry>
        </mxCell>
        <mxCell id="aZGQx3UeVVl6im-6-I7a-137" value="Domain&lt;br&gt;Class" style="shape=umlLifeline;perimeter=lifelinePerimeter;whiteSpace=wrap;html=1;container=1;dropTarget=0;collapsible=0;recursiveResize=0;outlineConnect=0;portConstraint=eastwest;newEdgeStyle={&quot;edgeStyle&quot;:&quot;elbowEdgeStyle&quot;,&quot;elbow&quot;:&quot;vertical&quot;,&quot;curved&quot;:0,&quot;rounded&quot;:0};" parent="1" vertex="1">
          <mxGeometry x="580" y="40" width="100" height="360" as="geometry" />
        </mxCell>
        <mxCell id="G64DORwCMHBJvfR-JeO5-2" value="" style="html=1;points=[];perimeter=orthogonalPerimeter;outlineConnect=0;targetShapes=umlLifeline;portConstraint=eastwest;newEdgeStyle={&quot;edgeStyle&quot;:&quot;elbowEdgeStyle&quot;,&quot;elbow&quot;:&quot;vertical&quot;,&quot;curved&quot;:0,&quot;rounded&quot;:0};" parent="aZGQx3UeVVl6im-6-I7a-137" vertex="1">
          <mxGeometry x="45" y="100" width="10" height="40" as="geometry" />
        </mxCell>
        <mxCell id="G64DORwCMHBJvfR-JeO5-3" value="validate request" style="html=1;align=left;spacingLeft=2;endArrow=block;rounded=0;edgeStyle=orthogonalEdgeStyle;curved=0;rounded=0;" parent="aZGQx3UeVVl6im-6-I7a-137" target="G64DORwCMHBJvfR-JeO5-2" edge="1">
          <mxGeometry relative="1" as="geometry">
            <mxPoint x="50" y="80" as="sourcePoint" />
            <Array as="points">
              <mxPoint x="80" y="110" />
            </Array>
          </mxGeometry>
        </mxCell>
        <mxCell id="G64DORwCMHBJvfR-JeO5-5" value="validate if vehicle exists" style="html=1;align=left;spacingLeft=2;endArrow=block;rounded=0;edgeStyle=orthogonalEdgeStyle;curved=0;rounded=0;" parent="aZGQx3UeVVl6im-6-I7a-137" edge="1">
          <mxGeometry relative="1" as="geometry">
            <mxPoint x="49" y="140" as="sourcePoint" />
            <Array as="points">
              <mxPoint x="79" y="170" />
            </Array>
            <mxPoint x="54" y="170" as="targetPoint" />
          </mxGeometry>
        </mxCell>
        <mxCell id="G64DORwCMHBJvfR-JeO5-10" value="" style="html=1;points=[];perimeter=orthogonalPerimeter;outlineConnect=0;targetShapes=umlLifeline;portConstraint=eastwest;newEdgeStyle={&quot;edgeStyle&quot;:&quot;elbowEdgeStyle&quot;,&quot;elbow&quot;:&quot;vertical&quot;,&quot;curved&quot;:0,&quot;rounded&quot;:0};" parent="aZGQx3UeVVl6im-6-I7a-137" vertex="1">
          <mxGeometry x="45" y="290" width="10" height="40" as="geometry" />
        </mxCell>
        <mxCell id="G64DORwCMHBJvfR-JeO5-11" value="save object" style="html=1;align=left;spacingLeft=2;endArrow=block;rounded=0;edgeStyle=orthogonalEdgeStyle;curved=0;rounded=0;exitX=1;exitY=1;exitDx=0;exitDy=-5;exitPerimeter=0;" parent="aZGQx3UeVVl6im-6-I7a-137" target="G64DORwCMHBJvfR-JeO5-10" edge="1" source="qPloP7XlMgl9lGeh7dxW-1">
          <mxGeometry relative="1" as="geometry">
            <mxPoint x="50" y="200" as="sourcePoint" />
            <Array as="points">
              <mxPoint x="55" y="270" />
              <mxPoint x="90" y="270" />
              <mxPoint x="90" y="320" />
            </Array>
            <mxPoint x="50" y="340" as="targetPoint" />
          </mxGeometry>
        </mxCell>
        <mxCell id="G64DORwCMHBJvfR-JeO5-4" value="" style="html=1;points=[];perimeter=orthogonalPerimeter;outlineConnect=0;targetShapes=umlLifeline;portConstraint=eastwest;newEdgeStyle={&quot;edgeStyle&quot;:&quot;elbowEdgeStyle&quot;,&quot;elbow&quot;:&quot;vertical&quot;,&quot;curved&quot;:0,&quot;rounded&quot;:0};" parent="aZGQx3UeVVl6im-6-I7a-137" vertex="1">
          <mxGeometry x="45" y="160" width="10" height="40" as="geometry" />
        </mxCell>
        <mxCell id="qPloP7XlMgl9lGeh7dxW-1" value="" style="html=1;points=[[0,0,0,0,5],[0,1,0,0,-5],[1,0,0,0,5],[1,1,0,0,-5]];perimeter=orthogonalPerimeter;outlineConnect=0;targetShapes=umlLifeline;portConstraint=eastwest;newEdgeStyle={&quot;curved&quot;:0,&quot;rounded&quot;:0};" vertex="1" parent="aZGQx3UeVVl6im-6-I7a-137">
          <mxGeometry x="45" y="230" width="10" height="40" as="geometry" />
        </mxCell>
        <mxCell id="qPloP7XlMgl9lGeh7dxW-2" value="validate if vehicle already&lt;br style=&quot;border-color: var(--border-color);&quot;&gt;is parked" style="html=1;align=left;spacingLeft=2;endArrow=block;rounded=0;edgeStyle=orthogonalEdgeStyle;curved=0;rounded=0;" edge="1" target="qPloP7XlMgl9lGeh7dxW-1" parent="aZGQx3UeVVl6im-6-I7a-137" source="G64DORwCMHBJvfR-JeO5-4">
          <mxGeometry relative="1" as="geometry">
            <mxPoint x="60" y="190" as="sourcePoint" />
            <Array as="points">
              <mxPoint x="90" y="200" />
              <mxPoint x="90" y="240" />
            </Array>
          </mxGeometry>
        </mxCell>
        <mxCell id="aZGQx3UeVVl6im-6-I7a-145" value="call method parking()" style="html=1;verticalAlign=bottom;endArrow=block;edgeStyle=elbowEdgeStyle;elbow=vertical;curved=0;rounded=0;" parent="1" source="G64DORwCMHBJvfR-JeO5-1" target="aZGQx3UeVVl6im-6-I7a-137" edge="1">
          <mxGeometry x="0.0579" width="80" relative="1" as="geometry">
            <mxPoint x="510" y="120" as="sourcePoint" />
            <mxPoint x="885" y="120" as="targetPoint" />
            <Array as="points">
              <mxPoint x="500" y="120" />
              <mxPoint x="585" y="120" />
              <mxPoint x="555" y="100" />
            </Array>
            <mxPoint as="offset" />
          </mxGeometry>
        </mxCell>
        <mxCell id="qPloP7XlMgl9lGeh7dxW-3" value="if vehicle is parked, throws&amp;nbsp;DataIntegratyException" style="html=1;verticalAlign=bottom;endArrow=open;dashed=1;endSize=8;edgeStyle=elbowEdgeStyle;elbow=vertical;curved=0;rounded=0;" edge="1" parent="1" source="qPloP7XlMgl9lGeh7dxW-1" target="6b8WSHH42Ca9wU3Yd8ZC-3">
          <mxGeometry y="-10" relative="1" as="geometry">
            <mxPoint x="620" y="290" as="sourcePoint" />
            <mxPoint x="210" y="290" as="targetPoint" />
            <mxPoint as="offset" />
          </mxGeometry>
        </mxCell>
        <mxCell id="qPloP7XlMgl9lGeh7dxW-4" value="API &lt;br&gt;Park Controller&lt;br&gt;&lt;b&gt;&lt;i&gt;/v1/park&lt;/i&gt;&lt;/b&gt;" style="shape=umlLifeline;perimeter=lifelinePerimeter;whiteSpace=wrap;html=1;container=1;dropTarget=0;collapsible=0;recursiveResize=0;outlineConnect=0;portConstraint=eastwest;newEdgeStyle={&quot;edgeStyle&quot;:&quot;elbowEdgeStyle&quot;,&quot;elbow&quot;:&quot;vertical&quot;,&quot;curved&quot;:0,&quot;rounded&quot;:0};autosize=0;resizeWidth=1;resizeHeight=1;" vertex="1" parent="1">
          <mxGeometry x="160" y="480" width="110" height="240" as="geometry" />
        </mxCell>
        <mxCell id="qPloP7XlMgl9lGeh7dxW-5" value="request - GET METHOD" style="html=1;verticalAlign=bottom;endArrow=block;edgeStyle=elbowEdgeStyle;elbow=vertical;curved=0;rounded=0;" edge="1" parent="1" target="qPloP7XlMgl9lGeh7dxW-4">
          <mxGeometry width="80" relative="1" as="geometry">
            <mxPoint x="40" y="560" as="sourcePoint" />
            <mxPoint x="170" y="560" as="targetPoint" />
          </mxGeometry>
        </mxCell>
        <mxCell id="qPloP7XlMgl9lGeh7dxW-6" value="User" style="shape=umlActor;verticalLabelPosition=bottom;verticalAlign=top;html=1;outlineConnect=0;" vertex="1" parent="1">
          <mxGeometry y="440" width="30" height="60" as="geometry" />
        </mxCell>
        <mxCell id="qPloP7XlMgl9lGeh7dxW-7" value="" style="html=1;points=[];perimeter=orthogonalPerimeter;outlineConnect=0;targetShapes=umlLifeline;portConstraint=eastwest;newEdgeStyle={&quot;edgeStyle&quot;:&quot;elbowEdgeStyle&quot;,&quot;elbow&quot;:&quot;vertical&quot;,&quot;curved&quot;:0,&quot;rounded&quot;:0};" vertex="1" parent="1">
          <mxGeometry x="10" y="520" width="10" height="160" as="geometry" />
        </mxCell>
        <mxCell id="qPloP7XlMgl9lGeh7dxW-9" value="call method parkList()" style="html=1;verticalAlign=bottom;endArrow=block;edgeStyle=elbowEdgeStyle;elbow=vertical;curved=0;rounded=0;" edge="1" parent="1" source="qPloP7XlMgl9lGeh7dxW-4" target="qPloP7XlMgl9lGeh7dxW-10">
          <mxGeometry width="80" relative="1" as="geometry">
            <mxPoint x="270" y="560" as="sourcePoint" />
            <mxPoint x="445" y="560" as="targetPoint" />
            <Array as="points">
              <mxPoint x="340" y="560" />
              <mxPoint x="310" y="540" />
            </Array>
          </mxGeometry>
        </mxCell>
        <mxCell id="qPloP7XlMgl9lGeh7dxW-10" value="Service&lt;br&gt;Class" style="shape=umlLifeline;perimeter=lifelinePerimeter;whiteSpace=wrap;html=1;container=1;dropTarget=0;collapsible=0;recursiveResize=0;outlineConnect=0;portConstraint=eastwest;newEdgeStyle={&quot;edgeStyle&quot;:&quot;elbowEdgeStyle&quot;,&quot;elbow&quot;:&quot;vertical&quot;,&quot;curved&quot;:0,&quot;rounded&quot;:0};" vertex="1" parent="1">
          <mxGeometry x="390" y="480" width="100" height="240" as="geometry" />
        </mxCell>
        <mxCell id="qPloP7XlMgl9lGeh7dxW-11" value="if vehicles not exists, throws&amp;nbsp;DataNullOrEmptyException" style="html=1;verticalAlign=bottom;endArrow=open;dashed=1;endSize=8;edgeStyle=elbowEdgeStyle;elbow=vertical;curved=0;rounded=0;" edge="1" parent="1" source="qPloP7XlMgl9lGeh7dxW-15" target="qPloP7XlMgl9lGeh7dxW-4">
          <mxGeometry y="-10" relative="1" as="geometry">
            <mxPoint x="630" y="590" as="sourcePoint" />
            <mxPoint x="480" y="590" as="targetPoint" />
            <mxPoint as="offset" />
          </mxGeometry>
        </mxCell>
        <mxCell id="qPloP7XlMgl9lGeh7dxW-12" value="return http status 200 - SUCCESS" style="html=1;verticalAlign=bottom;endArrow=open;dashed=1;endSize=8;edgeStyle=elbowEdgeStyle;elbow=vertical;curved=0;rounded=0;" edge="1" parent="1" source="qPloP7XlMgl9lGeh7dxW-20" target="qPloP7XlMgl9lGeh7dxW-4">
          <mxGeometry y="-10" relative="1" as="geometry">
            <mxPoint x="635" y="650" as="sourcePoint" />
            <mxPoint x="270" y="650" as="targetPoint" />
            <mxPoint as="offset" />
          </mxGeometry>
        </mxCell>
        <mxCell id="qPloP7XlMgl9lGeh7dxW-14" value="Domain&lt;br&gt;Class" style="shape=umlLifeline;perimeter=lifelinePerimeter;whiteSpace=wrap;html=1;container=1;dropTarget=0;collapsible=0;recursiveResize=0;outlineConnect=0;portConstraint=eastwest;newEdgeStyle={&quot;edgeStyle&quot;:&quot;elbowEdgeStyle&quot;,&quot;elbow&quot;:&quot;vertical&quot;,&quot;curved&quot;:0,&quot;rounded&quot;:0};" vertex="1" parent="1">
          <mxGeometry x="580" y="480" width="100" height="240" as="geometry" />
        </mxCell>
        <mxCell id="qPloP7XlMgl9lGeh7dxW-15" value="" style="html=1;points=[];perimeter=orthogonalPerimeter;outlineConnect=0;targetShapes=umlLifeline;portConstraint=eastwest;newEdgeStyle={&quot;edgeStyle&quot;:&quot;elbowEdgeStyle&quot;,&quot;elbow&quot;:&quot;vertical&quot;,&quot;curved&quot;:0,&quot;rounded&quot;:0};" vertex="1" parent="qPloP7XlMgl9lGeh7dxW-14">
          <mxGeometry x="45" y="100" width="10" height="40" as="geometry" />
        </mxCell>
        <mxCell id="qPloP7XlMgl9lGeh7dxW-16" value="validate if vehicles exists" style="html=1;align=left;spacingLeft=2;endArrow=block;rounded=0;edgeStyle=orthogonalEdgeStyle;curved=0;rounded=0;" edge="1" parent="qPloP7XlMgl9lGeh7dxW-14" target="qPloP7XlMgl9lGeh7dxW-15">
          <mxGeometry x="0.0118" relative="1" as="geometry">
            <mxPoint x="50" y="80" as="sourcePoint" />
            <Array as="points">
              <mxPoint x="80" y="110" />
            </Array>
            <mxPoint as="offset" />
          </mxGeometry>
        </mxCell>
        <mxCell id="qPloP7XlMgl9lGeh7dxW-17" value="return a list of vehicles parked" style="html=1;align=left;spacingLeft=2;endArrow=block;rounded=0;edgeStyle=orthogonalEdgeStyle;curved=0;rounded=0;" edge="1" parent="qPloP7XlMgl9lGeh7dxW-14">
          <mxGeometry relative="1" as="geometry">
            <mxPoint x="49" y="140" as="sourcePoint" />
            <Array as="points">
              <mxPoint x="79" y="170" />
            </Array>
            <mxPoint x="54" y="170" as="targetPoint" />
          </mxGeometry>
        </mxCell>
        <mxCell id="qPloP7XlMgl9lGeh7dxW-20" value="" style="html=1;points=[];perimeter=orthogonalPerimeter;outlineConnect=0;targetShapes=umlLifeline;portConstraint=eastwest;newEdgeStyle={&quot;edgeStyle&quot;:&quot;elbowEdgeStyle&quot;,&quot;elbow&quot;:&quot;vertical&quot;,&quot;curved&quot;:0,&quot;rounded&quot;:0};" vertex="1" parent="qPloP7XlMgl9lGeh7dxW-14">
          <mxGeometry x="45" y="160" width="10" height="40" as="geometry" />
        </mxCell>
        <mxCell id="qPloP7XlMgl9lGeh7dxW-23" value="call method parkingList()" style="html=1;verticalAlign=bottom;endArrow=block;edgeStyle=elbowEdgeStyle;elbow=vertical;curved=0;rounded=0;" edge="1" parent="1" source="qPloP7XlMgl9lGeh7dxW-10" target="qPloP7XlMgl9lGeh7dxW-14">
          <mxGeometry x="0.0579" width="80" relative="1" as="geometry">
            <mxPoint x="510" y="560" as="sourcePoint" />
            <mxPoint x="885" y="560" as="targetPoint" />
            <Array as="points">
              <mxPoint x="500" y="560" />
              <mxPoint x="585" y="560" />
              <mxPoint x="555" y="540" />
            </Array>
            <mxPoint as="offset" />
          </mxGeometry>
        </mxCell>
        <mxCell id="qPloP7XlMgl9lGeh7dxW-25" value="API &lt;br&gt;Car Controller&lt;br&gt;&lt;b&gt;&lt;i&gt;/v1/car&lt;/i&gt;&lt;/b&gt;" style="shape=umlLifeline;perimeter=lifelinePerimeter;whiteSpace=wrap;html=1;container=1;dropTarget=0;collapsible=0;recursiveResize=0;outlineConnect=0;portConstraint=eastwest;newEdgeStyle={&quot;edgeStyle&quot;:&quot;elbowEdgeStyle&quot;,&quot;elbow&quot;:&quot;vertical&quot;,&quot;curved&quot;:0,&quot;rounded&quot;:0};autosize=0;resizeWidth=1;resizeHeight=1;" vertex="1" parent="1">
          <mxGeometry x="160" y="800" width="110" height="320" as="geometry" />
        </mxCell>
        <mxCell id="qPloP7XlMgl9lGeh7dxW-26" value="request - POST METHOD" style="html=1;verticalAlign=bottom;endArrow=block;edgeStyle=elbowEdgeStyle;elbow=vertical;curved=0;rounded=0;" edge="1" parent="1" target="qPloP7XlMgl9lGeh7dxW-25">
          <mxGeometry width="80" relative="1" as="geometry">
            <mxPoint x="40" y="880" as="sourcePoint" />
            <mxPoint x="170" y="880" as="targetPoint" />
          </mxGeometry>
        </mxCell>
        <mxCell id="qPloP7XlMgl9lGeh7dxW-27" value="User" style="shape=umlActor;verticalLabelPosition=bottom;verticalAlign=top;html=1;outlineConnect=0;" vertex="1" parent="1">
          <mxGeometry y="760" width="30" height="60" as="geometry" />
        </mxCell>
        <mxCell id="qPloP7XlMgl9lGeh7dxW-28" value="" style="html=1;points=[];perimeter=orthogonalPerimeter;outlineConnect=0;targetShapes=umlLifeline;portConstraint=eastwest;newEdgeStyle={&quot;edgeStyle&quot;:&quot;elbowEdgeStyle&quot;,&quot;elbow&quot;:&quot;vertical&quot;,&quot;curved&quot;:0,&quot;rounded&quot;:0};" vertex="1" parent="1">
          <mxGeometry x="10" y="840" width="10" height="280" as="geometry" />
        </mxCell>
        <mxCell id="qPloP7XlMgl9lGeh7dxW-29" value="CarRequest" style="html=1;whiteSpace=wrap;" vertex="1" parent="1">
          <mxGeometry x="30" y="880" width="160" height="50" as="geometry" />
        </mxCell>
        <mxCell id="qPloP7XlMgl9lGeh7dxW-30" value="call method save()" style="html=1;verticalAlign=bottom;endArrow=block;edgeStyle=elbowEdgeStyle;elbow=horizontal;curved=0;rounded=0;" edge="1" parent="1" source="qPloP7XlMgl9lGeh7dxW-25" target="qPloP7XlMgl9lGeh7dxW-31">
          <mxGeometry width="80" relative="1" as="geometry">
            <mxPoint x="270" y="880" as="sourcePoint" />
            <mxPoint x="445" y="880" as="targetPoint" />
            <Array as="points">
              <mxPoint x="340" y="880" />
              <mxPoint x="310" y="860" />
            </Array>
          </mxGeometry>
        </mxCell>
        <mxCell id="qPloP7XlMgl9lGeh7dxW-31" value="Service&lt;br&gt;Class" style="shape=umlLifeline;perimeter=lifelinePerimeter;whiteSpace=wrap;html=1;container=1;dropTarget=0;collapsible=0;recursiveResize=0;outlineConnect=0;portConstraint=eastwest;newEdgeStyle={&quot;edgeStyle&quot;:&quot;elbowEdgeStyle&quot;,&quot;elbow&quot;:&quot;vertical&quot;,&quot;curved&quot;:0,&quot;rounded&quot;:0};" vertex="1" parent="1">
          <mxGeometry x="390" y="800" width="100" height="320" as="geometry" />
        </mxCell>
        <mxCell id="qPloP7XlMgl9lGeh7dxW-32" value="if invalid request, throws&amp;nbsp;BadRequestException" style="html=1;verticalAlign=bottom;endArrow=open;dashed=1;endSize=8;edgeStyle=elbowEdgeStyle;elbow=vertical;curved=0;rounded=0;" edge="1" parent="1" source="qPloP7XlMgl9lGeh7dxW-36" target="qPloP7XlMgl9lGeh7dxW-25">
          <mxGeometry y="-10" relative="1" as="geometry">
            <mxPoint x="630" y="910" as="sourcePoint" />
            <mxPoint x="480" y="910" as="targetPoint" />
            <mxPoint as="offset" />
          </mxGeometry>
        </mxCell>
        <mxCell id="qPloP7XlMgl9lGeh7dxW-33" value="if car exists, throws DataIntegratyException" style="html=1;verticalAlign=bottom;endArrow=open;dashed=1;endSize=8;edgeStyle=elbowEdgeStyle;elbow=vertical;curved=0;rounded=0;" edge="1" parent="1" source="qPloP7XlMgl9lGeh7dxW-41" target="qPloP7XlMgl9lGeh7dxW-25">
          <mxGeometry x="-0.0012" y="-10" relative="1" as="geometry">
            <mxPoint x="635" y="970" as="sourcePoint" />
            <mxPoint x="270" y="970" as="targetPoint" />
            <mxPoint as="offset" />
          </mxGeometry>
        </mxCell>
        <mxCell id="qPloP7XlMgl9lGeh7dxW-35" value="Domain&lt;br&gt;Class" style="shape=umlLifeline;perimeter=lifelinePerimeter;whiteSpace=wrap;html=1;container=1;dropTarget=0;collapsible=0;recursiveResize=0;outlineConnect=0;portConstraint=eastwest;newEdgeStyle={&quot;edgeStyle&quot;:&quot;elbowEdgeStyle&quot;,&quot;elbow&quot;:&quot;vertical&quot;,&quot;curved&quot;:0,&quot;rounded&quot;:0};" vertex="1" parent="1">
          <mxGeometry x="580" y="800" width="100" height="320" as="geometry" />
        </mxCell>
        <mxCell id="qPloP7XlMgl9lGeh7dxW-36" value="" style="html=1;points=[];perimeter=orthogonalPerimeter;outlineConnect=0;targetShapes=umlLifeline;portConstraint=eastwest;newEdgeStyle={&quot;edgeStyle&quot;:&quot;elbowEdgeStyle&quot;,&quot;elbow&quot;:&quot;vertical&quot;,&quot;curved&quot;:0,&quot;rounded&quot;:0};" vertex="1" parent="qPloP7XlMgl9lGeh7dxW-35">
          <mxGeometry x="45" y="100" width="10" height="40" as="geometry" />
        </mxCell>
        <mxCell id="qPloP7XlMgl9lGeh7dxW-37" value="validate request" style="html=1;align=left;spacingLeft=2;endArrow=block;rounded=0;edgeStyle=orthogonalEdgeStyle;curved=0;rounded=0;" edge="1" parent="qPloP7XlMgl9lGeh7dxW-35" target="qPloP7XlMgl9lGeh7dxW-36">
          <mxGeometry relative="1" as="geometry">
            <mxPoint x="50" y="80" as="sourcePoint" />
            <Array as="points">
              <mxPoint x="80" y="110" />
            </Array>
          </mxGeometry>
        </mxCell>
        <mxCell id="qPloP7XlMgl9lGeh7dxW-38" value="validate if car exists" style="html=1;align=left;spacingLeft=2;endArrow=block;rounded=0;edgeStyle=orthogonalEdgeStyle;curved=0;rounded=0;" edge="1" parent="qPloP7XlMgl9lGeh7dxW-35">
          <mxGeometry relative="1" as="geometry">
            <mxPoint x="49" y="140" as="sourcePoint" />
            <Array as="points">
              <mxPoint x="79" y="170" />
            </Array>
            <mxPoint x="54" y="170" as="targetPoint" />
          </mxGeometry>
        </mxCell>
        <mxCell id="qPloP7XlMgl9lGeh7dxW-41" value="" style="html=1;points=[];perimeter=orthogonalPerimeter;outlineConnect=0;targetShapes=umlLifeline;portConstraint=eastwest;newEdgeStyle={&quot;edgeStyle&quot;:&quot;elbowEdgeStyle&quot;,&quot;elbow&quot;:&quot;vertical&quot;,&quot;curved&quot;:0,&quot;rounded&quot;:0};" vertex="1" parent="qPloP7XlMgl9lGeh7dxW-35">
          <mxGeometry x="45" y="160" width="10" height="40" as="geometry" />
        </mxCell>
        <mxCell id="qPloP7XlMgl9lGeh7dxW-42" value="" style="html=1;points=[[0,0,0,0,5],[0,1,0,0,-5],[1,0,0,0,5],[1,1,0,0,-5]];perimeter=orthogonalPerimeter;outlineConnect=0;targetShapes=umlLifeline;portConstraint=eastwest;newEdgeStyle={&quot;curved&quot;:0,&quot;rounded&quot;:0};" vertex="1" parent="qPloP7XlMgl9lGeh7dxW-35">
          <mxGeometry x="45" y="230" width="10" height="40" as="geometry" />
        </mxCell>
        <mxCell id="qPloP7XlMgl9lGeh7dxW-43" value="save object" style="html=1;align=left;spacingLeft=2;endArrow=block;rounded=0;edgeStyle=orthogonalEdgeStyle;curved=0;rounded=0;" edge="1" parent="qPloP7XlMgl9lGeh7dxW-35" source="qPloP7XlMgl9lGeh7dxW-41" target="qPloP7XlMgl9lGeh7dxW-42">
          <mxGeometry relative="1" as="geometry">
            <mxPoint x="60" y="190" as="sourcePoint" />
            <Array as="points">
              <mxPoint x="90" y="200" />
              <mxPoint x="90" y="240" />
            </Array>
          </mxGeometry>
        </mxCell>
        <mxCell id="qPloP7XlMgl9lGeh7dxW-44" value="call method save()" style="html=1;verticalAlign=bottom;endArrow=block;edgeStyle=elbowEdgeStyle;elbow=vertical;curved=0;rounded=0;" edge="1" parent="1" source="qPloP7XlMgl9lGeh7dxW-31" target="qPloP7XlMgl9lGeh7dxW-35">
          <mxGeometry x="0.0579" width="80" relative="1" as="geometry">
            <mxPoint x="510" y="880" as="sourcePoint" />
            <mxPoint x="885" y="880" as="targetPoint" />
            <Array as="points">
              <mxPoint x="500" y="880" />
              <mxPoint x="585" y="880" />
              <mxPoint x="555" y="860" />
            </Array>
            <mxPoint as="offset" />
          </mxGeometry>
        </mxCell>
        <mxCell id="qPloP7XlMgl9lGeh7dxW-45" value="return http status 201 - CREATED" style="html=1;verticalAlign=bottom;endArrow=open;dashed=1;endSize=8;edgeStyle=elbowEdgeStyle;elbow=vertical;curved=0;rounded=0;" edge="1" parent="1" source="qPloP7XlMgl9lGeh7dxW-42" target="qPloP7XlMgl9lGeh7dxW-25">
          <mxGeometry y="-10" relative="1" as="geometry">
            <mxPoint x="620" y="1050" as="sourcePoint" />
            <mxPoint x="210" y="1050" as="targetPoint" />
            <mxPoint as="offset" />
          </mxGeometry>
        </mxCell>
        <mxCell id="qPloP7XlMgl9lGeh7dxW-46" value="API &lt;br&gt;Car Controller&lt;br&gt;&lt;b&gt;&lt;i&gt;/v1/car&lt;/i&gt;&lt;/b&gt;" style="shape=umlLifeline;perimeter=lifelinePerimeter;whiteSpace=wrap;html=1;container=1;dropTarget=0;collapsible=0;recursiveResize=0;outlineConnect=0;portConstraint=eastwest;newEdgeStyle={&quot;edgeStyle&quot;:&quot;elbowEdgeStyle&quot;,&quot;elbow&quot;:&quot;vertical&quot;,&quot;curved&quot;:0,&quot;rounded&quot;:0};autosize=0;resizeWidth=1;resizeHeight=1;" vertex="1" parent="1">
          <mxGeometry x="160" y="1200" width="110" height="320" as="geometry" />
        </mxCell>
        <mxCell id="qPloP7XlMgl9lGeh7dxW-47" value="request - DELETE METHOD" style="html=1;verticalAlign=bottom;endArrow=block;edgeStyle=elbowEdgeStyle;elbow=vertical;curved=0;rounded=0;" edge="1" parent="1" target="qPloP7XlMgl9lGeh7dxW-46">
          <mxGeometry width="80" relative="1" as="geometry">
            <mxPoint x="40" y="1280" as="sourcePoint" />
            <mxPoint x="170" y="1280" as="targetPoint" />
          </mxGeometry>
        </mxCell>
        <mxCell id="qPloP7XlMgl9lGeh7dxW-48" value="User" style="shape=umlActor;verticalLabelPosition=bottom;verticalAlign=top;html=1;outlineConnect=0;" vertex="1" parent="1">
          <mxGeometry y="1160" width="30" height="60" as="geometry" />
        </mxCell>
        <mxCell id="qPloP7XlMgl9lGeh7dxW-49" value="" style="html=1;points=[];perimeter=orthogonalPerimeter;outlineConnect=0;targetShapes=umlLifeline;portConstraint=eastwest;newEdgeStyle={&quot;edgeStyle&quot;:&quot;elbowEdgeStyle&quot;,&quot;elbow&quot;:&quot;vertical&quot;,&quot;curved&quot;:0,&quot;rounded&quot;:0};" vertex="1" parent="1">
          <mxGeometry x="10" y="1240" width="10" height="280" as="geometry" />
        </mxCell>
        <mxCell id="qPloP7XlMgl9lGeh7dxW-50" value="Long ID" style="html=1;whiteSpace=wrap;" vertex="1" parent="1">
          <mxGeometry x="30" y="1280" width="160" height="50" as="geometry" />
        </mxCell>
        <mxCell id="qPloP7XlMgl9lGeh7dxW-51" value="call method delete()" style="html=1;verticalAlign=bottom;endArrow=block;edgeStyle=elbowEdgeStyle;elbow=horizontal;curved=0;rounded=0;" edge="1" parent="1" source="qPloP7XlMgl9lGeh7dxW-46" target="qPloP7XlMgl9lGeh7dxW-52">
          <mxGeometry width="80" relative="1" as="geometry">
            <mxPoint x="270" y="1280" as="sourcePoint" />
            <mxPoint x="445" y="1280" as="targetPoint" />
            <Array as="points">
              <mxPoint x="340" y="1280" />
              <mxPoint x="310" y="1260" />
            </Array>
          </mxGeometry>
        </mxCell>
        <mxCell id="qPloP7XlMgl9lGeh7dxW-52" value="Service&lt;br&gt;Class" style="shape=umlLifeline;perimeter=lifelinePerimeter;whiteSpace=wrap;html=1;container=1;dropTarget=0;collapsible=0;recursiveResize=0;outlineConnect=0;portConstraint=eastwest;newEdgeStyle={&quot;edgeStyle&quot;:&quot;elbowEdgeStyle&quot;,&quot;elbow&quot;:&quot;vertical&quot;,&quot;curved&quot;:0,&quot;rounded&quot;:0};" vertex="1" parent="1">
          <mxGeometry x="390" y="1200" width="100" height="320" as="geometry" />
        </mxCell>
        <mxCell id="qPloP7XlMgl9lGeh7dxW-53" value="if invalid request, throws&amp;nbsp;BadRequestException" style="html=1;verticalAlign=bottom;endArrow=open;dashed=1;endSize=8;edgeStyle=elbowEdgeStyle;elbow=vertical;curved=0;rounded=0;" edge="1" parent="1" source="qPloP7XlMgl9lGeh7dxW-56" target="qPloP7XlMgl9lGeh7dxW-46">
          <mxGeometry y="-10" relative="1" as="geometry">
            <mxPoint x="630" y="1310" as="sourcePoint" />
            <mxPoint x="480" y="1310" as="targetPoint" />
            <mxPoint as="offset" />
          </mxGeometry>
        </mxCell>
        <mxCell id="qPloP7XlMgl9lGeh7dxW-54" value="if car not exists, throws&amp;nbsp;DataNullOrEmptyException" style="html=1;verticalAlign=bottom;endArrow=open;dashed=1;endSize=8;edgeStyle=elbowEdgeStyle;elbow=vertical;curved=0;rounded=0;" edge="1" parent="1" source="qPloP7XlMgl9lGeh7dxW-59" target="qPloP7XlMgl9lGeh7dxW-46">
          <mxGeometry x="-0.0012" y="-10" relative="1" as="geometry">
            <mxPoint x="635" y="1370" as="sourcePoint" />
            <mxPoint x="270" y="1370" as="targetPoint" />
            <mxPoint as="offset" />
          </mxGeometry>
        </mxCell>
        <mxCell id="qPloP7XlMgl9lGeh7dxW-55" value="Domain&lt;br&gt;Class" style="shape=umlLifeline;perimeter=lifelinePerimeter;whiteSpace=wrap;html=1;container=1;dropTarget=0;collapsible=0;recursiveResize=0;outlineConnect=0;portConstraint=eastwest;newEdgeStyle={&quot;edgeStyle&quot;:&quot;elbowEdgeStyle&quot;,&quot;elbow&quot;:&quot;vertical&quot;,&quot;curved&quot;:0,&quot;rounded&quot;:0};" vertex="1" parent="1">
          <mxGeometry x="580" y="1200" width="100" height="320" as="geometry" />
        </mxCell>
        <mxCell id="qPloP7XlMgl9lGeh7dxW-56" value="" style="html=1;points=[];perimeter=orthogonalPerimeter;outlineConnect=0;targetShapes=umlLifeline;portConstraint=eastwest;newEdgeStyle={&quot;edgeStyle&quot;:&quot;elbowEdgeStyle&quot;,&quot;elbow&quot;:&quot;vertical&quot;,&quot;curved&quot;:0,&quot;rounded&quot;:0};" vertex="1" parent="qPloP7XlMgl9lGeh7dxW-55">
          <mxGeometry x="45" y="100" width="10" height="40" as="geometry" />
        </mxCell>
        <mxCell id="qPloP7XlMgl9lGeh7dxW-57" value="validate request" style="html=1;align=left;spacingLeft=2;endArrow=block;rounded=0;edgeStyle=orthogonalEdgeStyle;curved=0;rounded=0;" edge="1" parent="qPloP7XlMgl9lGeh7dxW-55" target="qPloP7XlMgl9lGeh7dxW-56">
          <mxGeometry relative="1" as="geometry">
            <mxPoint x="50" y="80" as="sourcePoint" />
            <Array as="points">
              <mxPoint x="80" y="110" />
            </Array>
          </mxGeometry>
        </mxCell>
        <mxCell id="qPloP7XlMgl9lGeh7dxW-58" value="validate if car not exists" style="html=1;align=left;spacingLeft=2;endArrow=block;rounded=0;edgeStyle=orthogonalEdgeStyle;curved=0;rounded=0;" edge="1" parent="qPloP7XlMgl9lGeh7dxW-55">
          <mxGeometry relative="1" as="geometry">
            <mxPoint x="49" y="140" as="sourcePoint" />
            <Array as="points">
              <mxPoint x="79" y="170" />
            </Array>
            <mxPoint x="54" y="170" as="targetPoint" />
          </mxGeometry>
        </mxCell>
        <mxCell id="qPloP7XlMgl9lGeh7dxW-59" value="" style="html=1;points=[];perimeter=orthogonalPerimeter;outlineConnect=0;targetShapes=umlLifeline;portConstraint=eastwest;newEdgeStyle={&quot;edgeStyle&quot;:&quot;elbowEdgeStyle&quot;,&quot;elbow&quot;:&quot;vertical&quot;,&quot;curved&quot;:0,&quot;rounded&quot;:0};" vertex="1" parent="qPloP7XlMgl9lGeh7dxW-55">
          <mxGeometry x="45" y="160" width="10" height="40" as="geometry" />
        </mxCell>
        <mxCell id="qPloP7XlMgl9lGeh7dxW-60" value="" style="html=1;points=[[0,0,0,0,5],[0,1,0,0,-5],[1,0,0,0,5],[1,1,0,0,-5]];perimeter=orthogonalPerimeter;outlineConnect=0;targetShapes=umlLifeline;portConstraint=eastwest;newEdgeStyle={&quot;curved&quot;:0,&quot;rounded&quot;:0};" vertex="1" parent="qPloP7XlMgl9lGeh7dxW-55">
          <mxGeometry x="45" y="230" width="10" height="40" as="geometry" />
        </mxCell>
        <mxCell id="qPloP7XlMgl9lGeh7dxW-61" value="delete object" style="html=1;align=left;spacingLeft=2;endArrow=block;rounded=0;edgeStyle=orthogonalEdgeStyle;curved=0;rounded=0;" edge="1" parent="qPloP7XlMgl9lGeh7dxW-55" source="qPloP7XlMgl9lGeh7dxW-59" target="qPloP7XlMgl9lGeh7dxW-60">
          <mxGeometry relative="1" as="geometry">
            <mxPoint x="60" y="190" as="sourcePoint" />
            <Array as="points">
              <mxPoint x="90" y="200" />
              <mxPoint x="90" y="240" />
            </Array>
          </mxGeometry>
        </mxCell>
        <mxCell id="qPloP7XlMgl9lGeh7dxW-62" value="call method delete()" style="html=1;verticalAlign=bottom;endArrow=block;edgeStyle=elbowEdgeStyle;elbow=vertical;curved=0;rounded=0;" edge="1" parent="1" source="qPloP7XlMgl9lGeh7dxW-52" target="qPloP7XlMgl9lGeh7dxW-55">
          <mxGeometry x="0.0579" width="80" relative="1" as="geometry">
            <mxPoint x="510" y="1280" as="sourcePoint" />
            <mxPoint x="885" y="1280" as="targetPoint" />
            <Array as="points">
              <mxPoint x="500" y="1280" />
              <mxPoint x="585" y="1280" />
              <mxPoint x="555" y="1260" />
            </Array>
            <mxPoint as="offset" />
          </mxGeometry>
        </mxCell>
        <mxCell id="qPloP7XlMgl9lGeh7dxW-63" value="return http status 200 - SUCCESS" style="html=1;verticalAlign=bottom;endArrow=open;dashed=1;endSize=8;edgeStyle=elbowEdgeStyle;elbow=vertical;curved=0;rounded=0;" edge="1" parent="1" source="qPloP7XlMgl9lGeh7dxW-60" target="qPloP7XlMgl9lGeh7dxW-46">
          <mxGeometry y="-10" relative="1" as="geometry">
            <mxPoint x="620" y="1450" as="sourcePoint" />
            <mxPoint x="210" y="1450" as="targetPoint" />
            <mxPoint as="offset" />
          </mxGeometry>
        </mxCell>
      </root>
    </mxGraphModel>
  </diagram>
</mxfile>
